<svg width="1200" height="900" viewBox="0 0 1200 900" fill="none" xmlns="http://www.w3.org/2000/svg">
  <rect width="1200" height="900" fill="#2F2F30"/>
  <rect x="118" y="118" width="188" height="188" fill="#B49F00"/>
  <rect x="862" y="150" width="210" height="210" fill="#6087C2"/>
  <rect x="826" y="618" width="220" height="120" fill="#5B894B"/>
  <rect x="194" y="650" width="180" height="126" fill="#A2649D"/>
  <rect x="316" y="170" width="568" height="560" rx="24" fill="#16171B"/>
  <rect x="352" y="206" width="496" height="488" rx="14" fill="#202127"/>
  <rect x="764" y="206" width="36" height="488" fill="#0C0C10"/>
  <rect x="382" y="240" width="168" height="14" fill="#6087C2"/>
  <rect x="382" y="272" width="228" height="14" fill="#F0ECE6"/>
  <rect x="382" y="304" width="198" height="14" fill="#5B894B"/>
  <rect x="382" y="494" width="270" height="18" fill="#A2649D"/>
  <rect x="382" y="534" width="240" height="18" fill="#B49F00"/>
  <rect x="382" y="574" width="170" height="18" fill="#6087C2"/>
  <rect x="706" y="206" width="42" height="488" fill="#111116"/>
  <path d="M324 206H352V694H324C309.641 694 298 682.359 298 668V232C298 217.641 309.641 206 324 206Z" fill="#0E0F13"/>
  <text x="386" y="404" fill="#F0ECE6" font-size="54" font-family="Arial, Helvetica, sans-serif" letter-spacing="12">KODO</text>
  <text x="164" y="808" fill="#F0ECE6" fill-opacity="0.78" font-size="28" font-family="Arial, Helvetica, sans-serif" letter-spacing="7">PROMPT FIELD</text>
</svg>
