<svg width="1200" height="900" viewBox="0 0 1200 900" fill="none" xmlns="http://www.w3.org/2000/svg">
  <rect width="1200" height="900" fill="#2F2F30"/>
  <rect x="120" y="690" width="960" height="90" fill="#0E0E11" fill-opacity="0.72"/>
  <rect x="150" y="130" width="180" height="180" fill="#6087C2"/>
  <rect x="920" y="170" width="150" height="150" fill="#5B894B"/>
  <rect x="840" y="640" width="220" height="120" fill="#B49F00"/>
  <rect x="230" y="620" width="160" height="120" fill="#A2649D"/>
  <rect x="402" y="252" width="314" height="382" rx="38" fill="#F0ECE6"/>
  <rect x="438" y="286" width="242" height="60" rx="18" fill="#111116"/>
  <rect x="453" y="330" width="212" height="230" rx="14" fill="#D8D3CD"/>
  <path d="M715 338H790C841.915 338 884 380.085 884 432V452C884 503.915 841.915 546 790 546H715V493H770C802.033 493 828 467.033 828 435C828 402.967 802.033 377 770 377H715V338Z" fill="#F0ECE6"/>
  <rect x="502" y="382" width="42" height="42" fill="#6087C2"/>
  <rect x="544" y="382" width="42" height="42" fill="#A2649D"/>
  <rect x="586" y="382" width="42" height="42" fill="#5B894B"/>
  <rect x="628" y="382" width="42" height="42" fill="#B49F00"/>
  <rect x="502" y="424" width="42" height="42" fill="#A2649D"/>
  <rect x="544" y="424" width="42" height="42" fill="#F0ECE6"/>
  <rect x="586" y="424" width="42" height="42" fill="#6087C2"/>
  <rect x="628" y="424" width="42" height="42" fill="#111116"/>
  <text x="458" y="601" fill="#F0ECE6" font-size="44" font-family="Arial, Helvetica, sans-serif" letter-spacing="10">KODO</text>
  <text x="160" y="796" fill="#F0ECE6" fill-opacity="0.78" font-size="28" font-family="Arial, Helvetica, sans-serif" letter-spacing="7">THERMO MUG</text>
</svg>
