<svg width="1600" height="1000" viewBox="0 0 1600 1000" fill="none" xmlns="http://www.w3.org/2000/svg">
  <rect width="1600" height="1000" fill="#4D434B"/>
  <rect x="98" y="98" width="1404" height="804" fill="#17161A" stroke="rgba(255,255,255,0.16)"/>
  <text x="154" y="188" fill="#F3EEE8" font-family="Arial, Helvetica, sans-serif" font-size="30" letter-spacing="8">TESTS / PROFILES / SIGNAL MATRIX</text>
  <rect x="180" y="252" width="340" height="530" fill="#1F1D22" stroke="rgba(255,255,255,0.15)"/>
  <rect x="550" y="252" width="340" height="530" fill="#1F1D22" stroke="rgba(255,255,255,0.15)"/>
  <rect x="920" y="252" width="500" height="530" fill="#1F1D22" stroke="rgba(255,255,255,0.15)"/>
  <rect x="180" y="252" width="340" height="96" fill="#6087C2"/>
  <rect x="550" y="252" width="340" height="96" fill="#A2649D"/>
  <rect x="920" y="252" width="500" height="96" fill="#5B894B"/>
  <text x="212" y="316" fill="#17161A" font-family="Arial, Helvetica, sans-serif" font-size="54" font-weight="700" letter-spacing="-3">OPERATOR</text>
  <text x="586" y="316" fill="#17161A" font-family="Arial, Helvetica, sans-serif" font-size="54" font-weight="700" letter-spacing="-3">EDITOR</text>
  <text x="956" y="316" fill="#17161A" font-family="Arial, Helvetica, sans-serif" font-size="54" font-weight="700" letter-spacing="-3">DIRECTOR</text>
  <path d="M240 414H460" stroke="#F3EEE8" stroke-width="4"/>
  <path d="M240 466H460" stroke="#F3EEE8" stroke-width="4"/>
  <path d="M240 518H420" stroke="#F3EEE8" stroke-width="4"/>
  <path d="M610 414H830" stroke="#F3EEE8" stroke-width="4"/>
  <path d="M610 466H810" stroke="#F3EEE8" stroke-width="4"/>
  <path d="M610 518H830" stroke="#F3EEE8" stroke-width="4"/>
  <rect x="980" y="404" width="380" height="64" fill="#B49F00"/>
  <rect x="980" y="488" width="240" height="64" fill="#6087C2"/>
  <rect x="980" y="572" width="310" height="64" fill="#A2649D"/>
  <path d="M980 684H1360" stroke="#F3EEE8" stroke-width="6"/>
  <path d="M980 684V736H1184" stroke="#F3EEE8" stroke-width="6"/>
  <path d="M1184 736H1360" stroke="#5B894B" stroke-width="6"/>
  <text x="224" y="408" fill="#6087C2" font-family="Arial, Helvetica, sans-serif" font-size="24" letter-spacing="5">01 / QUICK START</text>
  <text x="224" y="730" fill="#F3EEE8" font-family="Arial, Helvetica, sans-serif" font-size="84" font-weight="700" letter-spacing="-6">RUN</text>
  <text x="594" y="408" fill="#A2649D" font-family="Arial, Helvetica, sans-serif" font-size="24" letter-spacing="5">02 / PATTERN CHECK</text>
  <text x="594" y="730" fill="#F3EEE8" font-family="Arial, Helvetica, sans-serif" font-size="84" font-weight="700" letter-spacing="-6">REWRITE</text>
  <text x="980" y="444" fill="#17161A" font-family="Arial, Helvetica, sans-serif" font-size="34" font-weight="700" letter-spacing="-2">STACK FIT</text>
  <text x="980" y="528" fill="#17161A" font-family="Arial, Helvetica, sans-serif" font-size="34" font-weight="700" letter-spacing="-2">PROMPT LINT</text>
  <text x="980" y="612" fill="#17161A" font-family="Arial, Helvetica, sans-serif" font-size="34" font-weight="700" letter-spacing="-2">PROFILE MATCH</text>
  <text x="980" y="742" fill="#F3EEE8" font-family="Arial, Helvetica, sans-serif" font-size="42" letter-spacing="6">MEASURE BEFORE YOU RECOMMEND.</text>
</svg>
